<svg xmlns="http://www.w3.org/2000/svg" viewBox="0 0 379 189.5"><defs><style>.cls-1{fill:#ec9f53;}</style></defs><title>logoWbg</title><g id="Layer_2" data-name="Layer 2"><g id="Layer_2-2" data-name="Layer 2"><path d="M379,0c0,104.66-84.84,189.5-189.5,189.5S0,104.66,0,0"/><path class="cls-1" d="M253.7,82.26,199.75,26.8l.59-.78c21.36,14,42.6,28.28,64.46,42.75Z"/><path class="cls-1" d="M154.87,101.84l-15.05-7.91,42.55-63.87.89.43C173.9,54,164.53,77.55,154.87,101.84Z"/><path class="cls-1" d="M278.49,36.48c-1.57,5.21-3.06,10.13-4.76,15.76L203.89,22.62C208,21.91,263.66,32.38,278.49,36.48Z"/><path class="cls-1" d="M191.31,31.75c5.06,24.78,10.12,49.55,15.25,74.72-5.07,1.83-10.24,1.37-15.74,2.08V32.07Z"/><path class="cls-1" d="M178.18,27.63,125.06,81.5A73.47,73.47,0,0,1,114.7,69.06c20.93-14.24,41.91-28.19,62.81-42.24Z"/><path class="cls-1" d="M174.67,22.85,105.88,52.32c-2.69-4.85-3.9-9.92-5.06-15.45l73.7-15.18Z"/><path class="cls-1" d="M194,31C203.92,54.4,213.82,77.8,224,101.84l-15.29,4.73C203.26,81.2,198.43,56.31,194,31Z"/><path class="cls-1" d="M188.34,108.59l-15.2-1.47c4.84-25,9.56-49.43,14.28-73.85l.92,0Z"/><path class="cls-1" d="M179.54,30.73c-13.66,20.52-27.32,41-41.29,62l-12-9.67L178.73,29.9Z"/><path class="cls-1" d="M185.48,33c-4.72,24.3-9.43,48.59-14.27,73.58l-14.51-4c9.4-23.62,18.61-46.73,27.81-69.85Z"/><path class="cls-1" d="M175.73,25.63,113.42,67.46c-2.45-4.4-4.7-8.45-7.29-13.09l69-29.57Z"/><path class="cls-1" d="M238.93,94l-13.12,7.06c-9.79-23.16-19.39-45.85-29-68.55l1-.51C211.38,52.46,225,72.93,238.93,94Z"/><path class="cls-1" d="M252,83.67l-11.44,9.24L199.4,30.82C203.44,33,238.33,68.19,252,83.67Z"/><path class="cls-1" d="M205.37,25.49c22.34,9.25,44.54,18.82,67.28,28.48-1.21,2.51-2.18,4.69-3.3,6.79s-2.28,3.89-3.66,6.24L204.81,26.57Z"/><path class="cls-1" d="M169,20.8,100.63,34.9c-1.61-4.85-1.58-9.61-2-14.62h70.22Z"/><path class="cls-1" d="M280.35,20.21c-.47,4.68-.89,8.84-1.3,12.91-3.93.57-62-10.57-67.89-12.91Z"/></g></g></svg>