<svg xmlns="http://www.w3.org/2000/svg" viewBox="0 0 106.02 51.7"><defs><style>.cls-1{fill:#ec9f53;stroke:#fff;stroke-miterlimit:10;stroke-width:0.25px;}</style></defs><title>Asset 1</title><g id="Layer_2" data-name="Layer 2"><g id="Layer_1-2" data-name="Layer 1"><path class="cls-1" d="M90.37,36.24,59,4l.34-.45C71.75,11.68,84.11,20,96.83,28.39Z"/><path class="cls-1" d="M32.85,47.64,24.1,43,48.86,5.86l.52.25Z"/><path class="cls-1" d="M104.8,9.6c-.92,3-1.78,5.89-2.77,9.17L61.39,1.53C63.76,1.12,96.17,7.21,104.8,9.6Z"/><path class="cls-1" d="M54.06,6.84C57,21.26,60,35.68,62.94,50.33c-2.95,1.06-6,.8-9.16,1.21V7Z"/><path class="cls-1" d="M46.42,4.45,15.5,35.8a43.63,43.63,0,0,1-6-7.24C21.66,20.27,33.87,12.15,46,4Z"/><path class="cls-1" d="M44.38,1.66l-40,17.15a30.93,30.93,0,0,1-2.95-9L44.29,1Z"/><path class="cls-1" d="M55.65,6.4C61.4,20,67.16,33.64,73.07,47.63l-8.89,2.76C61,35.62,58.21,21.14,55.65,6.4Z"/><path class="cls-1" d="M52.33,51.56l-8.84-.85c2.81-14.56,5.56-28.77,8.31-43l.53,0Z"/><path class="cls-1" d="M47.21,6.25l-24,36.1-7-5.62C26.5,26.27,36.62,16,46.74,5.77Z"/><path class="cls-1" d="M50.67,7.58c-2.74,14.14-5.49,28.28-8.31,42.82l-8.44-2.33L50.11,7.42Z"/><path class="cls-1" d="M45,3.28,8.73,27.63,4.49,20,44.65,2.8Z"/><path class="cls-1" d="M81.78,43.07l-7.64,4.11C68.44,33.7,62.86,20.49,57.27,7.28l.57-.3C65.74,18.9,73.65,30.81,81.78,43.07Z"/><path class="cls-1" d="M89.4,37.06l-6.66,5.38L58.77,6.3C61.12,7.55,81.43,28.05,89.4,37.06Z"/><path class="cls-1" d="M62.25,3.2c13,5.39,25.92,11,39.15,16.58-.71,1.46-1.27,2.73-1.92,3.95S98.16,26,97.35,27.36L61.92,3.83Z"/><path class="cls-1" d="M41.05.47,1.29,8.68C.35,5.85.37,3.08.14.17H41Z"/><path class="cls-1" d="M105.88.13c-.27,2.72-.52,5.15-.75,7.51C102.84,8,69.05,1.49,65.61.13Z"/></g></g></svg>